<?xml version="1.0" standalone="no"?>
<!DOCTYPE svg PUBLIC "-//W3C//DTD SVG 20010904//EN"
 "http://www.w3.org/TR/2001/REC-SVG-20010904/DTD/svg10.dtd">
<svg version="1.0" xmlns="http://www.w3.org/2000/svg"
 width="700.000000pt" height="700.000000pt" viewBox="0 0 700.000000 700.000000"
 preserveAspectRatio="xMidYMid meet">
<metadata>
Created by potrace 1.14, written by Peter Selinger 2001-2017
</metadata>
<g transform="translate(0.000000,700.000000) scale(0.100000,-0.100000)"
fill="#000000" stroke="none">
<path d="M3278 6995 c-1 -1 -42 -5 -89 -9 -47 -4 -95 -8 -105 -10 -10 -2 -41
-7 -69 -10 -335 -44 -715 -158 -1030 -312 -180 -87 -448 -247 -555 -331 -8 -6
-51 -40 -95 -74 -342 -266 -650 -623 -875 -1014 -47 -83 -170 -327 -170 -340
0 -3 -9 -24 -20 -48 -57 -123 -157 -435 -186 -582 -2 -11 -10 -54 -19 -95 -29
-147 -36 -200 -52 -370 -15 -165 -8 -592 12 -711 2 -13 6 -46 9 -74 9 -78 22
-152 51 -285 21 -98 92 -342 114 -395 5 -11 17 -42 26 -70 10 -27 38 -96 62
-152 l43 -103 0 -142 c0 -133 1 -144 25 -185 32 -53 70 -74 149 -80 34 -2 63
-9 65 -14 7 -20 164 -235 229 -313 156 -188 335 -364 532 -521 92 -74 370
-265 386 -265 4 0 15 -6 23 -14 26 -22 260 -140 391 -196 268 -115 597 -207
879 -246 25 -3 57 -8 71 -10 162 -25 683 -25 841 1 13 2 47 7 74 10 71 10 87
13 115 18 14 3 43 8 65 12 22 4 76 16 120 27 44 10 87 21 96 23 225 51 643
223 853 350 32 19 62 35 67 35 5 0 9 5 9 10 0 6 5 10 10 10 15 0 220 141 330
227 152 118 324 280 450 422 36 41 70 79 75 85 25 26 146 188 199 264 56 79
68 89 113 83 27 -4 94 21 116 42 50 46 57 76 57 230 0 139 1 147 31 213 16 38
36 83 44 99 48 110 143 413 171 550 17 81 54 301 59 350 4 33 9 71 11 85 9 47
11 525 4 605 -15 157 -21 210 -25 225 -2 8 -7 35 -10 60 -17 129 -80 384 -136
552 -348 1036 -1168 1857 -2204 2206 -168 57 -420 119 -555 137 -19 3 -46 7
-60 10 -13 2 -52 7 -86 11 -33 3 -74 8 -90 10 -33 5 -540 14 -546 9z"/>
</g>
</svg>
